<?xml version="1.0" encoding="UTF-8" standalone="no"?>
<!DOCTYPE svg PUBLIC "-//W3C//DTD SVG 1.1//EN" "http://www.w3.org/Graphics/SVG/1.1/DTD/svg11.dtd">
<svg width="100%" height="100%" viewBox="0 0 353 567" version="1.1" xmlns="http://www.w3.org/2000/svg" xmlns:xlink="http://www.w3.org/1999/xlink" xml:space="preserve" xmlns:serif="http://www.serif.com/" style="fill-rule:evenodd;clip-rule:evenodd;stroke-linejoin:round;stroke-miterlimit:2;">
    <g transform="matrix(1,0,0,1,-878.438,-1153.94)">
        <g transform="matrix(1,0,0,1,-245.667,-104.977)">
            <circle cx="1300.14" cy="1318.9" r="59.986" style="fill:rgb(103,58,183);"/>
        </g>
        <g transform="matrix(0.727819,0,0,1,105.637,-125.378)">
            <path d="M1416.59,1433.98C1416.59,1420.37 1401.41,1409.33 1382.71,1409.33L1224.63,1409.33C1205.94,1409.33 1190.76,1420.37 1190.76,1433.98L1190.76,1636.39C1190.76,1650 1205.94,1661.05 1224.63,1661.05L1382.71,1661.05C1401.41,1661.05 1416.59,1650 1416.59,1636.39L1416.59,1433.98Z" style="fill:rgb(103,58,183);"/>
        </g>
        <g transform="matrix(0.895405,0,0,1,117.716,-115.196)">
            <path d="M1036.32,1600.35C1036.32,1590.23 1027.14,1582.01 1015.84,1582.01L974.884,1582.01C963.581,1582.01 954.404,1590.23 954.404,1600.35L954.404,1817.45C954.404,1827.57 963.581,1835.79 974.884,1835.79L1015.84,1835.79C1027.14,1835.79 1036.32,1827.57 1036.32,1817.45L1036.32,1600.35Z" style="fill:rgb(103,58,183);"/>
        </g>
        <g transform="matrix(0.894896,0,0,1,209.257,-115.196)">
            <path d="M1036.32,1600.34C1036.32,1590.23 1027.14,1582.01 1015.84,1582.01L974.884,1582.01C963.581,1582.01 954.404,1590.23 954.404,1600.34L954.404,1817.46C954.404,1827.58 963.581,1835.79 974.884,1835.79L1015.84,1835.79C1027.14,1835.79 1036.32,1827.58 1036.32,1817.46L1036.32,1600.34Z" style="fill:rgb(103,58,183);"/>
        </g>
        <g transform="matrix(1,0,0,1,8.83223,34.427)">
            <rect x="874.166" y="1283.95" width="342.956" height="182.869" style="fill:rgb(81,45,168);"/>
        </g>
        <g transform="matrix(0.299166,-0.113671,0.113671,0.299166,749.772,1058.36)">
            <path d="M434.533,1581.95C382.705,1583.22 330.881,1564.74 291.376,1526.2C212.349,1449.1 212.349,1320.74 291.376,1239.74C330.889,1199.24 382.726,1178.19 434.562,1176.91L521.701,1176.91L521.701,1153.94L674.054,1227.55L521.701,1301.16L521.701,1278.18L434.562,1278.18L434.562,1278.17C408.644,1278.81 382.726,1289.34 362.969,1309.59C323.455,1350.09 323.455,1414.27 362.969,1452.82C382.726,1472.09 408.644,1481.33 434.562,1480.69L434.562,1480.74L761.164,1480.74L761.164,1582.01L434.533,1582.01L434.533,1581.95Z" style="fill:white;"/>
        </g>
    </g>
    <g transform="matrix(1,0,0,1,-877.174,-1148.84)">
        <g transform="matrix(1,0,0,1,210.891,-26.863)">
            <path d="M672.269,1386.79L678.591,1387.46C686.103,1388.27 692.789,1392.83 695.016,1399.33C697.919,1407.81 692.15,1416.4 682.142,1418.52C679.825,1419.01 677.482,1419.11 675.215,1418.87L675.215,1418.87L671.911,1418.52L666.283,1418.52L666.283,1386.79L672.269,1386.79Z" style="fill:rgb(103,58,183);"/>
        </g>
        <g transform="matrix(-1,0,0,1,1895.53,-26.863)">
            <path d="M672.269,1386.79L678.591,1387.46C686.103,1388.27 692.789,1392.83 695.016,1399.33C697.919,1407.81 692.15,1416.4 682.142,1418.52C679.825,1419.01 677.482,1419.11 675.215,1418.87L675.215,1418.87L671.911,1418.52L666.283,1418.52L666.283,1386.79L672.269,1386.79Z" style="fill:rgb(103,58,183);"/>
        </g>
    </g>
</svg>
